<?xml version="1.0" standalone="no"?>
<!DOCTYPE svg PUBLIC "-//W3C//DTD SVG 20010904//EN"
 "http://www.w3.org/TR/2001/REC-SVG-20010904/DTD/svg10.dtd">
<svg version="1.0" xmlns="http://www.w3.org/2000/svg"
 width="840.000000pt" height="859.000000pt" viewBox="0 0 840.000000 859.000000"
 preserveAspectRatio="xMidYMid meet">

<g transform="translate(0.000000,859.000000) scale(0.100000,-0.100000)"
fill="#000000" stroke="none">
<path d="M4940 8544 c-453 -53 -840 -224 -1125 -496 -245 -234 -403 -506 -494
-848 -71 -269 -81 -403 -81 -1072 l0 -548 -640 0 -640 0 0 -855 0 -855 640 0
640 0 0 -1920 0 -1920 855 0 855 0 0 1920 0 1920 655 0 c627 0 655 1 655 18 0
10 16 155 35 323 20 167 42 363 50 434 8 72 24 207 34 300 58 504 71 619 71
627 0 4 -338 8 -751 8 l-750 0 4 568 c4 626 6 647 69 764 53 100 147 167 283
201 113 29 255 37 680 37 l425 0 0 675 0 675 -22 4 c-40 9 -256 26 -518 41
-314 18 -773 18 -930 -1z"/>
</g>
</svg>
