<?xml version="1.0" standalone="no"?>
<!DOCTYPE svg PUBLIC "-//W3C//DTD SVG 20010904//EN"
 "http://www.w3.org/TR/2001/REC-SVG-20010904/DTD/svg10.dtd">
<svg version="1.0" xmlns="http://www.w3.org/2000/svg"
 width="900.000000pt" height="700.000000pt" viewBox="0 0 900.000000 700.000000"
 preserveAspectRatio="xMidYMid meet">

<g transform="translate(0.000000,700.000000) scale(0.100000,-0.100000)"
fill="#000000" stroke="none">
<path d="M2580 6984 c-404 -55 -758 -231 -1046 -518 -239 -239 -395 -515 -478
-841 -57 -227 -56 -178 -56 -2116 0 -1181 4 -1812 11 -1877 51 -471 279 -903
634 -1200 284 -238 621 -382 987 -421 134 -15 3586 -15 3729 0 861 87 1542
768 1629 1628 14 143 14 3580 -1 3722 -77 757 -619 1392 -1349 1579 -220 57
-89 53 -2100 56 -1566 2 -1871 0 -1960 -12z m3891 -616 c425 -117 727 -392
867 -790 72 -202 67 -60 67 -2083 0 -1722 -1 -1825 -18 -1905 -56 -259 -162
-456 -341 -636 -180 -179 -377 -285 -636 -341 -80 -17 -183 -18 -1905 -18
-2023 0 -1881 -5 -2083 66 -406 143 -678 449 -799 899 -16 60 -18 191 -21
1890 -2 1581 -1 1838 12 1920 81 513 485 922 1001 1014 68 12 365 14 1920 13
l1840 -2 96 -27z"/>
<path d="M6366 5829 c-121 -20 -241 -112 -294 -227 -24 -51 -27 -69 -27 -167
0 -98 3 -116 27 -167 96 -205 339 -289 543 -189 150 74 245 257 216 415 -42
227 -244 372 -465 335z"/>
<path d="M4325 5229 c-627 -65 -1184 -478 -1425 -1056 -167 -399 -182 -836
-43 -1237 204 -592 681 -1012 1304 -1148 92 -20 132 -22 344 -22 228 -1 246 1
359 28 375 88 648 243 905 512 232 243 393 565 450 903 26 152 28 397 6 546
-39 257 -141 515 -287 727 -172 249 -401 446 -673 578 -297 144 -620 202 -940
169z m411 -543 c367 -73 682 -315 854 -657 45 -88 97 -251 111 -347 19 -133 7
-366 -24 -485 -120 -456 -493 -803 -956 -891 -108 -21 -323 -21 -432 -1 -498
92 -872 466 -980 980 -20 92 -17 343 5 445 53 248 161 446 341 625 185 184
409 298 670 340 105 17 301 12 411 -9z"/>
</g>
</svg>
