<?xml version="1.0" standalone="no"?>
<!DOCTYPE svg PUBLIC "-//W3C//DTD SVG 20010904//EN"
 "http://www.w3.org/TR/2001/REC-SVG-20010904/DTD/svg10.dtd">
<svg version="1.0" xmlns="http://www.w3.org/2000/svg"
 width="320.000000pt" height="320.000000pt" viewBox="0 0 320.000000 320.000000"
 preserveAspectRatio="xMidYMid meet">

<g transform="translate(0.000000,320.000000) scale(0.100000,-0.100000)"
fill="#000000" stroke="none">
<path d="M277 3140 c-96 -25 -166 -81 -209 -168 -30 -61 -33 -74 -33 -162 0
-121 24 -178 101 -249 68 -62 132 -85 234 -84 245 2 392 207 321 444 -19 61
-31 81 -79 129 -39 38 -73 62 -107 74 -60 21 -176 29 -228 16z"/>
<path d="M2287 2245 c-188 -36 -372 -154 -484 -310 l-21 -30 -6 35 c-5 32 -26
242 -26 262 0 4 -126 8 -281 8 l-281 0 6 -77 c3 -43 9 -529 12 -1080 l7 -1003
318 0 319 0 0 658 c0 716 0 720 57 825 36 65 120 141 179 161 28 9 80 16 123
16 156 0 250 -84 298 -262 14 -55 17 -147 20 -730 l4 -668 320 0 319 0 0 693
c0 418 -4 726 -10 777 -48 386 -233 635 -528 711 -104 26 -248 32 -345 14z"/>
<path d="M50 1130 l0 -1080 320 0 320 0 0 1080 0 1080 -320 0 -320 0 0 -1080z"/>
</g>
</svg>
