<?xml version="1.0" standalone="no"?>
<!DOCTYPE svg PUBLIC "-//W3C//DTD SVG 20010904//EN"
 "http://www.w3.org/TR/2001/REC-SVG-20010904/DTD/svg10.dtd">
<svg version="1.0" xmlns="http://www.w3.org/2000/svg"
 width="600.000000pt" height="600.000000pt" viewBox="0 0 600.000000 600.000000"
 preserveAspectRatio="xMidYMid meet">

<g transform="translate(0.000000,600.000000) scale(0.100000,-0.100000)"
fill="#000000" stroke="none">
<path d="M3128 3828 l-3 -2073 -22 -77 c-84 -295 -305 -522 -588 -607 -404
-120 -837 72 -1020 453 -65 136 -80 205 -79 371 0 152 12 214 64 337 85 199
267 376 473 457 155 62 370 77 517 36 30 -8 58 -15 63 -15 4 0 7 215 7 479 l0
479 -22 6 c-13 4 -97 9 -188 12 -186 7 -345 -9 -513 -51 -679 -171 -1200 -718
-1338 -1403 -31 -152 -37 -426 -15 -582 31 -208 82 -373 172 -554 99 -196 199
-331 372 -497 140 -135 264 -222 437 -308 303 -151 583 -208 935 -190 846 43
1556 686 1686 1525 15 98 16 227 14 1243 l-1 1134 23 -16 c431 -305 873 -462
1351 -479 l97 -4 0 472 0 471 -99 6 c-689 46 -1254 566 -1355 1250 -9 58 -16
125 -16 151 l0 46 -475 0 -475 0 -2 -2072z"/>
</g>
</svg>
