<?xml version="1.0" standalone="no"?>
<!DOCTYPE svg PUBLIC "-//W3C//DTD SVG 20010904//EN"
 "http://www.w3.org/TR/2001/REC-SVG-20010904/DTD/svg10.dtd">
<svg version="1.0" xmlns="http://www.w3.org/2000/svg"
 width="850.000000pt" height="618.000000pt" viewBox="0 0 850.000000 618.000000"
 preserveAspectRatio="xMidYMid meet">

<g transform="translate(0.000000,618.000000) scale(0.100000,-0.100000)"
fill="#000000" stroke="none">
<path d="M4905 5143 c-186 -29 -368 -107 -515 -219 -73 -55 -196 -185 -243
-256 -147 -223 -211 -497 -178 -762 7 -54 11 -99 9 -101 -2 -2 -51 0 -108 6
-644 58 -1244 308 -1737 724 -96 81 -304 288 -375 373 l-36 44 -35 -74 c-83
-174 -112 -323 -104 -525 8 -218 63 -390 181 -566 60 -92 181 -220 246 -263
69 -46 61 -47 -105 -22 -80 12 -194 48 -277 88 l-58 27 0 -57 c0 -134 56 -339
127 -470 137 -249 356 -434 623 -525 40 -14 82 -25 92 -25 10 0 18 -4 18 -9 0
-27 -343 -50 -437 -29 -45 10 -43 -3 11 -118 62 -129 132 -228 234 -326 181
-174 384 -269 637 -301 l98 -13 -69 -51 c-205 -151 -473 -277 -728 -343 -218
-57 -281 -64 -553 -65 -139 0 -253 -1 -253 -2 0 -8 214 -126 323 -178 602
-288 1273 -374 1955 -250 963 175 1755 793 2192 1709 142 297 236 607 284 931
21 141 39 417 33 501 l-5 71 76 59 c108 83 303 282 391 397 41 54 72 99 70
101 -2 2 -51 -15 -109 -37 -121 -46 -345 -104 -434 -112 -61 -6 -61 -6 -36 12
186 135 299 266 384 444 69 146 70 145 -11 101 -97 -53 -224 -110 -323 -144
-98 -34 -257 -78 -283 -78 -10 0 -52 30 -95 66 -141 121 -287 197 -472 246
-55 15 -115 21 -225 23 -82 2 -163 1 -180 -2z"/>
</g>
</svg>
