<?xml version="1.0" standalone="no"?>
<!DOCTYPE svg PUBLIC "-//W3C//DTD SVG 20010904//EN"
 "http://www.w3.org/TR/2001/REC-SVG-20010904/DTD/svg10.dtd">
<svg version="1.0" xmlns="http://www.w3.org/2000/svg"
 width="860.000000pt" height="900.000000pt" viewBox="0 0 860.000000 900.000000"
 preserveAspectRatio="xMidYMid meet">

<g transform="translate(0.000000,900.000000) scale(0.100000,-0.100000)"
fill="#000000" stroke="none">
<path d="M3550 7383 c-25 -1 -205 -7 -400 -13 -704 -21 -1766 -81 -1887 -106
-170 -35 -321 -115 -451 -239 -146 -139 -242 -302 -286 -485 -10 -40 -43 -289
-65 -480 -100 -872 -106 -1865 -15 -2730 25 -243 64 -541 80 -613 64 -294 272
-562 540 -696 107 -54 206 -80 349 -91 289 -23 1340 -81 1845 -102 412 -17
1712 -17 2135 0 376 15 1042 48 1270 62 695 45 666 41 800 95 155 62 344 216
442 360 72 107 138 254 167 375 29 119 96 734 123 1120 21 307 24 1210 5 1490
-36 534 -97 1080 -137 1235 -90 346 -385 626 -730 696 -140 28 -1187 86 -2055
114 -396 13 -1561 18 -1730 8z m-1 -1680 c69 -36 358 -191 641 -343 283 -152
698 -375 923 -495 224 -121 407 -222 407 -226 0 -4 -78 -48 -172 -99 -95 -51
-387 -207 -648 -348 -261 -140 -630 -338 -820 -440 -190 -101 -373 -200 -407
-219 l-63 -35 0 1136 c0 625 3 1136 6 1136 4 0 64 -30 133 -67z"/>
</g>
</svg>
