
<svg version="1.1" id="Layer_1" xmlns="http://www.w3.org/2000/svg" xmlns:xlink="http://www.w3.org/1999/xlink" x="0px" y="0px"
	 viewBox="0 0 1920 1440" enable-background="new 0 0 1920 1440" xml:space="preserve">
<path d="M105.45,117.5c21.59-18.58,43.18-37.16,64.77-55.75c0.05,15.48,0.02,30.96,0.01,46.44c7.55-12.33,21.64-19.48,35.82-20.5
	c18.57-1.53,36.75,5.92,51.52,16.73c8.95,6.3,16.2,14.61,24.88,21.24c20.97,16.35,46.01,28.34,72.67,31.11
	c16.89,1.79,35-1.19,48.66-11.87c-11.86,19.56-28.94,36.55-50.1,45.76c-15.49,6.78-33.18,8.3-49.58,4.19
	c-13.94-3.38-26.85-10.18-38.38-18.6c-14.22-10.6-28.82-21.06-45.29-27.88c-8.73-3.49-18.62-5.87-27.87-3
	c-8.84,2.66-15.25,9.63-22.3,15.18c-0.06,13.51,0.03,27.02-0.04,40.53C148.6,173.25,127.04,145.36,105.45,117.5z"/>
<path d="M457.87,131.49c36.89-22.54,73.85-44.95,110.76-67.44c0.06,11.45-0.01,22.91,0.04,34.36c17.99,0,35.98,0.01,53.98,0
	c0.03,22.04,0.0099,44.09,0,66.13c-17.9901,0.01-35.9901-0.01-53.9901,0.01c-0.02,11.45,0.02,22.9-0.02,34.35
	C531.72,176.42,494.8,153.95,457.87,131.49z"/>
<path d="M785.48,131.5c20.49-20.98,41.04-41.88,61.58-62.8c0.09,8.48,0.01,16.97,0.04,25.46c50.07,0.03,100.13,0,150.19,0.02
	c-12,12.47-24.3,24.65-36.3,37.13c0.93,1.84,2.72,3.1,4.1,4.61c10.75,10.96,21.5699,21.85,32.23,32.9
	c-50.07,0-100.15-0.02-150.22,0.01c-0.0099,8.46,0.02,16.93-0.0099,25.39C826.48,173.39,806.02,152.4,785.48,131.5z"/>
<path d="M1157.63,79.22c28.63,0.02,57.27-0.08,85.91,0.04c-19.1901,12.08-38.7201,23.61-58.03,35.49
	c-9.37,5.55-18.5,11.53-28.01,16.84C1157.77,114.14,1157.51,96.67,1157.63,79.22z"/>
<path d="M1243.64,79.2c61.42,0.03,122.83-0.01,184.25,0.02c0.02,11.59,0.02,23.17,0,34.75c-61.39,0.04-122.79,0.01-184.1801,0.02
	C1243.64,102.39,1243.77,90.8,1243.64,79.2z"/>
<path d="M1724.39,124.62c9.83-13.86,19.61-27.75,29.47-41.59c22.4501,8.51,44.9401,16.95,67.4,25.46
	c-1.41,14.56-2.76,29.12-4.17,43.67c-18.2799-12.27-36.47-24.68-54.7999-36.88c-12.7001,13.81-25.25,27.75-37.98,41.53
	c-12.65-12.34-25.3501-24.63-38.02-36.96c-11.26,10.77-22.49,21.56-33.7201,32.35c-11.34-10.71-22.5499-21.56-33.8199-32.35
	c-9.88,10.8-19.6899,21.66-29.55,32.47c1.3601,9.12,2.78,18.23,4.1101,27.35c-14.0701-13.67-28-27.5-41.9901-41.26
	c12.62-13.75,25.2201-27.53,37.8401-41.29c0.0599,10.72,0,21.44,0.0399,32.16c9.92-12.3,19.7101-24.71,29.54-37.09
	c12.7,10.81,25.4,21.62,38.11,32.43c8.4401-10.79,16.85-21.6,25.27-32.41C1696.21,103.01,1710.28,113.84,1724.39,124.62z"/>
<path d="M633.22,99.76c9.52-0.01,19.05-0.01,28.58,0c0,21.14,0,42.28,0,63.42c-9.53,0.02-19.06,0.02-28.58,0
	C633.2,142.04,633.21,120.9,633.22,99.76z"/>
<path d="M670.88,99.76c5.44,0,10.88-0.02,16.33,0c-0.01,21.15,0.0099,42.29-0.01,63.43c-5.44,0.01-10.88,0-16.31,0
	C670.88,142.05,670.89,120.9,670.88,99.76z"/>
<path d="M698.79,99.9c3.62,0,7.2401-0.01,10.86,0.02c0.02,21.12,0.04,42.25-0.01,63.37c-3.62,0.01-7.24,0.01-10.85,0.01
	C698.78,142.16,698.76,121.03,698.79,99.9z"/>
<path d="M1157.59,137.95c0.05-2.14-0.35-4.48,1.01-6.32c3.88,3.58,8.87,5.67,13.23,8.61c23.39,14.29,46.87,28.41,70.1801,42.82
	c-28.13,0.04-56.26,0-84.39,0.01C1157.58,168.03,1157.64,152.99,1157.59,137.95z"/>
<path d="M1243.71,149.29c61.4,0,122.79-0.01,184.1901,0.01c-0.01,11.25,0.03,22.51-0.02,33.77c-61.39,0.02-122.78,0-184.17,0.01
	C1243.6899,171.82,1243.6801,160.55,1243.71,149.29z"/>
<path d="M861.17,251.12c9.77-9.85,18.89-20.35,27.27-31.41c0.08,15.06-0.01,30.12,0.04,45.18c38.21-8.27,76.38-16.68,114.59-24.94
	c0.02,41.69,0.03,83.38,0,125.08c-38.17-8.25-76.31-16.66-114.48-24.93c-0.06,15.08,0.0099,30.15-0.04,45.22
	c-20.37-26.38-44.27-50.65-73.01-67.88c-11.24-6.59-23.28-12.09-36.07-14.82C811.36,294.58,838.28,273.98,861.17,251.12z"/>
<path d="M1249.42,240.42c10.2-6.74,20.39-13.52,30.63-20.21c0.0399,14.23,0.01,28.46,0.01,42.68
	c50.8799,0,101.7599-0.01,152.6399,0.01c0.02,26.39,0,52.78,0.01,79.17c-50.88,0.05-101.76-0.01-152.64,0.02
	c-0.09,14.21,0.1801,28.43-0.1499,42.63c-15.38-10.18-30.78-20.33-46.15-30.52c-26.74-17.56-53.9301-34.43-80.88-51.65
	C1185.01,281.76,1217.67,261.78,1249.42,240.42 M1253.22,241.26c-31.2999,21.06-63.39,40.9-95.1599,61.23
	c22.3199,14.2,44.6499,28.36,66.96,42.58c17.4299,11.51,34.83,23.06,52.29,34.54c0.0099-13.47-0.01-26.93,0.0099-40.39
	c50.91-0.02,101.8301,0.01,152.7401-0.02c-0.16-24.47,0.1399-48.95-0.1201-73.42c-50.87-0.02-101.74,0-152.61-0.01
	c-0.0399-13.48,0-26.96-0.0199-40.43C1269.28,230.64,1261.26,235.98,1253.22,241.26z"/>
<path d="M1658.26,229.27c10.23,7.51,20.39,15.14,30.6,22.69c-10.21,7.56-20.38,15.16-30.59,22.71
	c-10.1801-7.58-20.37-15.14-30.5601-22.71C1637.9,244.4,1648.08,236.83,1658.26,229.27z"/>
<path d="M490.41,302.5c32.95-22.87,65.78-45.91,98.88-68.56c-8.91,10.75-18.23,21.17-27.2599,31.82c38.49,0.06,76.98,0,115.46,0.04
	c0.02,24.47,0.02,48.94,0,73.42c-38.45,0.02-76.9-0.02-115.35,0.01c8.99,10.67,18.36,21.03,27.21,31.81
	C556.25,348.38,523.43,325.28,490.41,302.5z"/>
<path d="M197.28,282.68c62.87-15.47,125.71-31.1,188.58-46.56c-13.7,21.58-27.7,42.98-41.42,64.54
	c14.99,22.72,29.97,45.46,44.89,68.23c-64.02-15.5-128.01-31.11-192.04-46.58c-0.07,8.83,0.02,17.65-0.05,26.48
	c-25.6-15.61-51.21-31.19-76.83-46.76c25.58-15.65,51.23-31.17,76.83-46.79C197.31,264.39,197.23,273.53,197.28,282.68z"/>
<path d="M1172.5601,302.42c32.5399-19.78,65.0599-39.6,97.59-59.4c0.03,10.09,0,20.18,0.02,30.27
	c50.8999-0.03,101.7999-0.02,152.7-0.01c0.04,19.46,0.03,38.92,0,58.38c-50.9,0.02-101.8,0-152.7,0.01
	c-0.02,10.08,0.01,20.17-0.01,30.26C1237.62,342.09,1204.99,322.42,1172.5601,302.42z"/>
<path d="M1590.84,277.15c10.17-7.58,20.36-15.13,30.54-22.71c10.21,7.54,20.36,15.15,30.5699,22.69
	c-10.1799,7.59-20.37,15.19-30.61,22.71C1611.1899,292.24,1601,284.72,1590.84,277.15z"/>
<path d="M1554.26,302.39c10.1-7.68,20.37-15.14,30.52-22.76c10.1799,7.57,20.38,15.11,30.5499,22.7
	c-10.1799,7.61-20.35,15.24-30.62,22.73C1574.6,317.44,1564.4301,309.91,1554.26,302.39z"/>
<path d="M1627.45,302.37c10.12-7.64,20.37-15.12,30.52-22.74c10.1901,7.56,20.39,15.12,30.5601,22.71
	c-10.16,7.6-20.36,15.15-30.54,22.72C1647.8,317.51,1637.64,309.92,1627.45,302.37z"/>
<path d="M1692.8199,302.32c10.2001-7.54,20.37-15.11,30.53-22.69c10.2001,7.56,20.39,15.13,30.5801,22.71
	c-10.16,7.6-20.37,15.12-30.52,22.72C1713.1899,317.5,1702.98,309.94,1692.8199,302.32z"/>
<path d="M1757.23,302.33c10.1801-7.58,20.36-15.15,30.5701-22.69c10.1499,7.57,20.33,15.12,30.51,22.67
	c-10.14,7.64-20.3601,15.18-30.54,22.75C1777.58,317.48,1767.37,309.94,1757.23,302.33z"/>
<path d="M1620.26,305.28c10.1799,7.57,20.37,15.13,30.54,22.71c-10.17,7.59-20.3601,15.15-30.54,22.71
	c-10.1901-7.56-20.37-15.13-30.5601-22.7C1599.88,320.41,1610.0699,312.84,1620.26,305.28z"/>
<path d="M1625.72,353.02c10.1901-7.57,20.39-15.12,30.55-22.74c10.1899,7.59,20.4,15.16,30.59,22.76
	c-10.2,7.56-20.39,15.14-30.59,22.7C1646.1,368.14,1635.89,360.61,1625.72,353.02z"/>
<path d="M1761.09,424.05c4.1-0.17,8.2001-0.11,12.3201-0.1c-8.8201,16.76-17.78,33.44-26.62,50.19c4.21,0.03,8.4199,0,12.64,0.03
	c8.9099-16.7,17.7799-33.41,26.6399-50.13c4.0901-0.15,8.2001-0.15,12.3201-0.01c-8.87,16.71-17.77,33.4-26.61,50.12
	c4.2,0.01,8.4099-0.01,12.63,0.02c8.9199-16.68,17.7799-33.4,26.63-50.12c4.1,0,8.2-0.02,12.3199,0.01
	c-8.87,16.69-17.74,33.39-26.6,50.09c4.26,0.01,8.53,0,12.8199,0.02c0.01,3.88,0,7.77,0,11.66c-4.2699,0.02-8.5399,0-12.7999,0.03
	c8.8199,16.75,17.78,33.43,26.6,50.19c-4.12,0.02-8.24,0.07-12.35-0.1c-8.8401-16.72-17.7001-33.44-26.63-50.12
	c-4.22,0.03-8.42,0-12.63,0.02c8.86,16.75,17.78,33.46,26.65,50.2c-4.13,0.02-8.26,0.07-12.36-0.1
	c-8.8701-16.71-17.7101-33.44-26.64-50.12c-4.2101,0.02-8.42-0.01-12.61,0.04c8.8099,16.75,17.7899,33.42,26.58,50.18
	c-4.1,0.01-8.21,0.08-12.29-0.09c-8.91-16.7-17.71-33.46-26.6699-50.13c-32.03,0.05-64.0701-0.03-96.1001,0.04
	c0,16.69,0.01,33.37-0.01,50.06c-29.72-18.62-59.4199-37.27-89.11-55.93c29.6901-18.67,59.39-37.31,89.11-55.93
	c0.02,16.68,0.01,33.37,0.01,50.06c32.03,0.06,64.0601,0,96.0901,0.04C1743.4,457.51,1752.1801,440.74,1761.09,424.05z"/>
<path d="M814.16,429.76c4.98-0.01,9.97-0.02,14.97,0c-5.99,16.75-12.03,33.48-18.06,50.22c6.01,16.75,12.07,33.5,18.07,50.26
	c-5,0-9.99,0.01-14.98,0c-5.72-16.77-11.5099-33.51-17.2-50.29C802.71,463.23,808.43,446.5,814.16,429.76z"/>
<path d="M815.49,480c5.73-16.74,11.39-33.51,17.08-50.26c4.02,0.01,8.04,0,12.07,0.03c-6.03,16.74-12.05,33.48-18.07,50.22
	c6.01,16.75,12.04,33.5,18.07,50.24c-4.02,0.03-8.04,0-12.06,0.03C826.89,513.5,821.22,496.74,815.49,480z"/>
<path d="M833.32,480c5.79-16.74,11.45-33.53,17.26-50.26c11.66,0.03,23.31,0.01,34.97,0.01c-6.02,16.75-12.04,33.5-18.08,50.24
	c6.03,16.75,12.07,33.49,18.07,50.25c-11.65,0.02-23.31-0.01-34.96,0.01C844.78,513.52,839.11,496.74,833.32,480z"/>
<path d="M890.31,429.76c7.52-0.01,15.05-0.02,22.57,0c-6.04,16.75-12.07,33.5-18.07,50.26c6.02,16.74,12.04,33.48,18.07,50.21
	c-7.53,0.01-15.06,0.03-22.58,0c-5.76-16.74-11.46-33.49-17.22-50.22C878.84,463.27,884.52,446.49,890.31,429.76z"/>
<path d="M899.24,480c5.73-16.75,11.29-33.56,17.14-50.27c4,0.03,8,0,12,0.02c-6.05,16.74-12.06,33.5-18.09,50.25
	c6.02,16.75,12.05,33.5,18.09,50.24c-4.01,0.01-8.01-0.01-12.01,0.02C910.54,513.55,904.96,496.75,899.24,480z"/>
<path d="M934.24,429.76c11.68-0.02,23.36,0,35.04-0.01c-6.02,16.75-12.07,33.48-18.07,50.23c5.98,16.77,12.06,33.51,18.07,50.27
	c-11.67-0.02-23.35,0.02-35.02-0.02c-5.71-16.75-11.47-33.48-17.19-50.22C922.77,463.25,928.57,446.53,934.24,429.76z"/>
<path d="M974,429.76c3.97-0.01,7.95-0.02,11.94,0c-6.03,16.74-12.06,33.48-18.07,50.23c5.99,16.76,12.06,33.5,18.06,50.25
	c-3.98,0-7.96,0-11.94,0c-5.67-16.77-11.49-33.49-17.17-50.26C962.53,463.23,968.3,446.51,974,429.76z"/>
<path d="M1357.5699,432.5c25.78-0.01,51.5601-0.02,77.3401,0c-6.3401,15.84-12.75,31.66-19.12,47.49
	c6.36,15.84,12.77,31.66,19.12,47.51c-25.78,0.02-51.5601,0-77.3301,0c-4.33-10.71-8.6499-21.42-12.9399-32.15
	c-33.4401,0.01-66.87-0.04-100.3,0.03c4.2001,10.69,8.63,21.29,12.8101,31.98c-35.51-15.75-70.99-31.57-106.48-47.37
	c35.49-15.81,70.98-31.61,106.49-47.36c-4.2001,10.69-8.62,21.3-12.8201,31.99c33.42,0.07,66.8401,0.02,100.26,0.02
	C1348.98,453.95,1353.21,443.2,1357.5699,432.5z"/>
<path d="M466.87,480.24c11.58-12.15,23.05-24.4,34.68-36.5c4.78,0.06,9.56,0,14.35,0.06c-12.05,12.14-24.04,24.33-36.13,36.42
	c12,12.03,24.1,23.96,36.12,35.97c-4.84,0.06-9.67,0.05-14.5,0.01C489.95,504.15,478.33,492.27,466.87,480.24z"/>
<path d="M488.42,480.27c11.51-12.18,23.07-24.32,34.6-36.49c8.1,0,16.21-0.02,24.31,0.01c-12.11,12.2-24.39,24.24-36.5,36.45
	c12.12,12.02,24.35,23.93,36.48,35.96c-8.09,0.06-16.18,0.02-24.26,0.02C511.48,504.26,499.97,492.24,488.42,480.27z"/>
<path d="M519.19,480.23c11.55-12.11,22.99-24.33,34.52-36.46c9,0.02,17.99-0.03,26.99,0.03c-11.9,12.2-23.93,24.29-35.84,36.48
	c11.92,11.99,23.92,23.91,35.84,35.91c-8.99,0.09-17.98,0-26.97,0.05C542.19,504.27,530.7,492.23,519.19,480.23z"/>
<path d="M555.44,480.26c11.55-12.14,23.07-24.3,34.59-36.48c36.81-0.01,73.62-0.02,110.42,0.01c-12.08,12.2-24.26,24.3-36.38,36.47
	c12.16,11.95,24.3,23.93,36.39,35.95c-36.8,0.04-73.6,0.02-110.4,0.0099C578.5,504.25,567.01,492.21,555.44,480.26z"/>
<path d="M373.15,451.43c2.13,0.01,4.26,0.03,6.4,0.05c-4.7,8.57-9.56,17.04-14.23,25.62c2.55-0.54,6.7,1.32,7.92-1.87
	c4.34-7.94,8.88-15.79,13.18-23.75c2.18-0.03,4.35-0.03,6.53-0.01c-4.67,8.58-9.56,17.04-14.23,25.63c2.32-0.01,4.65-0.06,6.98-0.16
	c4.68-8.52,9.48-16.96,14.17-25.46c2.16-0.03,4.32-0.03,6.49-0.02c-4.67,8.57-9.56,17.02-14.21,25.6c2.3,0.01,4.61,0.02,6.92,0.06
	c-0.01,1.89-0.01,3.79-0.01,5.7c-2.33,0.04-4.65,0.05-6.96,0.08c4.72,8.56,9.57,17.05,14.25,25.64c-2.15,0-4.29,0-6.43,0.02
	c-4.79-8.55-9.56-17.11-14.32-25.67c-2.31-0.03-4.6-0.03-6.9-0.02c4.7,8.58,9.56,17.07,14.25,25.65c-2.07,0.01-4.14,0.02-6.2,0.05
	l-0.45-0.31c-4.66-8.5-9.44-16.93-14.15-25.4c-2.27,0-4.55,0.01-6.81,0.03c4.66,8.59,9.52,17.08,14.23,25.64
	c-2.17,0.01-4.34,0.02-6.5,0.01c-4.31-7.8-8.68-15.57-13.01-23.36c-69.86,0-139.71,0-209.56-0.01c3.67,6.61,7.45,13.15,11.04,19.79
	c-19.34-8.06-38.6-16.31-57.92-24.43c19.22-8.37,38.6-16.38,57.91-24.54c-3.49,6.49-7.19,12.87-10.76,19.31
	c69.67,0.02,139.34-0.01,209.01,0.01C364.23,467.35,368.63,459.36,373.15,451.43z"/>
<path d="M1570.03,644.61c38.5699-23.55,77.23-46.97,115.7999-70.53c0.0601,20.69-0.01,41.38,0.03,62.07
	c38.92,0,77.84-0.01,116.76,0.0099c0,5.6,0.01,11.22,0,16.83c-38.92,0.11-77.84,0.03-116.76,0.04c-0.03,20.68,0.01,41.36-0.02,62.04
	C1647.23,691.6,1608.66,668.07,1570.03,644.61z"/>
<path d="M470.13,644.57c37.72-22.95,75.42-45.93,113.15-68.88c0.02,14.66-0.01,29.33,0.0099,43.99
	c38.04,0.03,76.08,0.01,114.12,0.01c0.03,16.6,0.02,33.19,0.01,49.79c-38.04,0.02-76.09,0-114.13,0.01
	c-0.0099,14.67,0.01,29.34-0.0099,44.01C545.57,690.52,507.82,667.58,470.13,644.57z"/>
<path d="M102.71,644.63c17.4-7.69,34.24-17.16,48.38-30.03c-3.07,10.12-6.82,20.05-9.54,30.25c3.03,9.98,6.44,19.85,9.57,29.8
	C137.02,661.75,120.18,652.19,102.71,644.63z"/>
<path d="M739.99,644.56c16.61-5.83,31.22-16.4,43.09-29.27c-0.57,8.46-3.11,16.78-7.64,23.97c65.86,0.04,131.72-0.01,197.58,0.02
	c2.28-0.04,4.59,0.16,6.87-0.19c5.55-5.66,11.02-11.86,13.79-19.41c16.57,0.04,33.15-0.03,49.72,0.04
	c-1.49,11.72-10.5601,21.5-21.78,24.75c5.88,2.15,11.55,5.38,15.4301,10.42c3.35,4.12,5.2799,9.19,6.33,14.36
	c-16.5699,0.04-33.14-0.01-49.7,0.02c-2.64-7.6-8.12-13.76-13.6-19.48c-68.28,0.03-136.57-0.04-204.85,0.04
	c4.68,7.11,6.89,15.53,7.78,23.93C770.64,661.51,756.67,650.26,739.99,644.56z"/>
<path d="M1133.16,644.67c27.77-10.08,55.73-19.68,83.64-29.41c0.36,0.7,1.09,2.11,1.45,2.82c-6.9,7.04-13.84,14.04-20.71,21.12
	c62.7899,0.02,125.5699,0.03,188.35,0c8.13-6.37,16.38-12.57,24.51-18.93c1.0599-0.71,2.0499-1.89,3.47-1.76
	c12.88-0.05,25.77-0.04,38.66,0.01c-6.88,8.65-14.0601,17.04-21.0801,25.57c7.0601,8.53,14.1801,17.02,21.1901,25.61
	c-12.54,0.03-25.09,0-37.63,0.02c-2.72,0.4301-4.53-1.91-6.52-3.29c-7.38-5.65-14.64-11.46-22.12-16.95
	c-20.76-0.47-41.58-0.06-62.36-0.2c-42.37,0.0099-84.74-0.02-127.11,0.02c7.0699,7.33,14.23,14.57,21.38,21.83
	c-0.53,0.92-1.05,1.86-1.5601,2.8C1188.85,664.23,1161,654.45,1133.16,644.67 M1143.4301,644.59
	c22.2799,7.85,44.58,15.67,66.8899,23.43c-7.08-7.55-14.5-14.76-21.6599-22.23c66.21-0.09,132.4099,0,198.61-0.05
	c8.88,6.82,17.74,13.67,26.63,20.49c10.5,0.02,21,0,31.51,0.01c-6.1-7.4-12.25-14.76-18.35-22.16
	c6.09-7.38,12.2599-14.71,18.2899-22.14c-10.47,0.12-20.96-0.29-31.4,0.2c-9.35,6.41-17.86,14.06-27.22,20.46
	c-65.78,0.21-131.5699,0.09-197.34,0.05c6.9-7.22,14.09-14.19,20.9399-21.48C1188.01,628.91,1165.72,636.76,1143.4301,644.59z"/>
<path d="M340.09,641.37c5.84-6.51,11.71-12.99,17.55-19.49c16.55,0.08,33.1,0,49.64,0.04c-5.8,6.52-11.74,12.91-17.57,19.42
	C373.17,641.41,356.63,641.34,340.09,641.37z"/>
<path d="M1395.22,644.79c6.91-6.32,14.48-11.96,21.88-17.68c5.9-0.55,11.88-0.1,17.8201-0.21
	c-5.55,5.94-11.1901,11.81-16.7001,17.78c5.0701,5.86,10.17,11.69,15.16,17.64c-5.89,0.06-11.77,0-17.64,0.05
	C1408.89,656.51,1402,650.72,1395.22,644.79z"/>
<path d="M145.54,639.38c64.12-0.02,128.24-0.01,192.36,0c0.01,3.39,0.01,6.78,0,10.18c-64.12-0.01-128.24,0.01-192.36-0.01
	C145.53,646.16,145.53,642.77,145.54,639.38z"/>
<path d="M1150.73,645.5c10.55-0.14,21.1-0.04,31.65-0.06c5.4399,5.38,10.99,10.66,16.42,16.05
	C1182.73,656.33,1166.6899,651.01,1150.73,645.5z"/>
<path d="M340.22,648.14c16.49-0.01,32.98,0,49.47,0c5.83,6.24,11.72,12.43,17.55,18.68c-16.45,0.04-32.9,0.14-49.34-0.04
	C352.27,660.41,346.83,653.65,340.22,648.14z"/>
<path d="M1224.34,756.05c13.28-0.09,26.5701-0.01,39.85-0.05c-15.3799,19.61-31.0599,38.99-46.5,58.55
	c66.66,0.06,133.3101-0.01,199.9701,0.04c0.01,8.3,0.01,16.6,0,24.91c-66.65,0.03-133.29-0.04-199.9301,0.04
	c15.4301,19.51,31.01,38.9,46.4501,58.39c-13.3101-0.07-26.62,0.15-39.92-0.02c-18.77-23.66-37.62-47.2599-56.4401-70.89
	C1186.65,803.36,1205.53,779.73,1224.34,756.05z"/>
<path d="M1575.8,827c16.6699-23.8,33.3199-47.62,50.0399-71.4c5.8101,0.03,11.62-0.02,17.4501,0.03
	c-15.14,21.76-30.4401,43.4-45.5601,65.17c66.35,0.02,132.7001-0.01,199.05,0.02c0,4.14,0,8.28,0.01,12.43
	c-66.3401,0.05-132.6801-0.02-199.02,0.04c15.1,21.78,30.4199,43.39,45.53,65.16c-5.8301,0.04-11.66,0-17.4801,0.02
	C1609.16,874.63,1592.4399,850.85,1575.8,827z"/>
<path d="M753.6,824.61c45.77-20.14,91.47-40.43,137.25-60.54c0.04,5.78,0,11.57,0.03,17.36c47.99,0.04,95.99,0.01,143.98,0.02
	c0.01,30.39,0.02,60.78,0,91.17c-48,0.03-95.99-0.03-143.99,0.03c-0.02,5.77,0.02,11.55-0.01,17.33
	c-47.36-20.89-94.75-41.74-142.05-62.75C750.01,825.8,751.99,825.43,753.6,824.61z"/>
<path d="M441.72,826.99c28.06-14.77,56.09-29.58,84.17-44.33c0.03,8.71-0.01,17.42,0.02,26.13c35.7401,0.06,71.48-0.02,107.22,0.04
	c7.37-7.63,14.61-15.38,21.92-23.06c23.55,0.03,47.1-0.05,70.64,0.04c-12.97,13.78-26.06,27.44-39.03,41.21
	c13.03,13.75,26.07,27.49,39.09,41.25c-23.56,0.08-47.12,0.03-70.69,0.03c-7.4-7.63-14.44-15.68-22.09-23.03
	c-35.68-0.19-71.3799-0.05-107.06-0.06c-0.03,8.73,0,17.46-0.02,26.2C497.85,856.58,469.75,841.85,441.72,826.99z"/>
<path d="M346.5,786.44c12.94-0.44,25.94-0.08,38.91-0.17c-15.79,12.89-31.92,25.34-47.75,38.18c4.36,0.07,8.73,0.06,13.09,0.02
	c14.69-12.24,29.51-24.3,44.21-36.53c0.95-0.63,1.77-1.79,3.04-1.66c8.29-0.08,16.59-0.03,24.88,0.0099
	c-17.4,13.69-34.85,27.34-52.28,41.01c17.42,13.54,34.93,26.97,52.36,40.51c-8.62,0.03-17.24,0.01-25.85,0.01
	c-15.41-12.53-30.8-25.09-46.19-37.65c-4.42-0.03-8.84-0.03-13.25-0.01c15.84,12.6801,31.97,25.01,47.85,37.64
	c-13-0.08-26.03,0.29-39-0.17c-15.39-12.35-30.59-24.95-45.86-37.45c-53.51,0.12-107.03,0.04-160.55,0.24
	c5.65,12.41,11.59,24.68,17.15,37.14c-23.54-13.36-47.01-26.8-70.48-40.27c23.52-13.61,47.01-27.29,70.55-40.87
	c-5.72,12.78-11.66,25.45-17.41,38.21c53.04,0.01,106.07-0.17,159.11-0.15c1.48,0.26,2.45-1.06,3.55-1.78
	C317.21,810.61,331.74,798.37,346.5,786.44z"/>
<path d="M430.17,1011.39c25.48-26.8,50.86-53.69,76.36-80.47c0,53.65,0.02,107.31,0,160.96
	C481.01,1065.11,455.58,1038.26,430.17,1011.39z"/>
<path d="M631.34,933.15c20.96-0.04,41.91-0.03,62.87,0c-24.68,26.16-49.53,52.15-74.2,78.33c24.81,26.03,49.54,52.13,74.25,78.25
	c-20.97,0.01-41.93,0.05-62.9-0.02c-24.7-26.1499-49.53-52.1699-74.22-78.3199C581.87,985.31,606.62,959.24,631.34,933.15z"/>
<path d="M1163.54,1011.47c43.46-19.6,87.08-38.86,130.6599-58.21c-5.1499,13.12-10.5299,26.15-15.74,39.25
	c47.92,0.05,95.8401-0.01,143.76,0.02c0,12.59,0.01,25.1899,0,37.78c-47.9199,0.0099-95.83-0.03-143.75,0.0199
	c5.2001,13.1001,10.5801,26.13,15.75,39.26C1250.63,1050.27,1207.1,1030.85,1163.54,1011.47z"/>
<path d="M82.3,1011.51c42.22-19.12,84.66-37.75,126.99-56.63c-7.41,18.81-15.19,37.48-22.55,56.31
	c7.02,19.07,15.21,37.77,22.55,56.7499C166.94,1049.17,124.66,1030.26,82.3,1011.51z"/>
<path d="M742.64,1011.52c62.01-17.81,124.16-35.16,186.23-52.77c0.05,13.93-0.02,27.87,0.04,41.81
	c37.27,0.02,74.54,0.01,111.81,0.01c0.0601,7.22,0.01,14.45,0.03,21.68c-37.28,0.01-74.57,0-111.85,0
	c-0.04,13.95,0.0099,27.89-0.02,41.84C866.8,1046.5601,804.72,1029.03,742.64,1011.52z"/>
<path d="M230.81,1011.46c48.35-17.04,96.82-33.79,145.26-50.61c0.01,33.72,0.02,67.4401-0.01,101.16
	C327.64,1045.16,279.22,1028.34,230.81,1011.46z"/>
<path d="M1561.17,1011.42c33.38-7,66.83-13.61,100.23-20.47c0.01,3.99,0,7.99,0.02,12c50.23,0.03,100.47,0.01,150.71,0
	c0.03,5.65,0.01,11.29,0.01,16.94c-50.24,0.02-100.48-0.02-150.73,0.02c-0.01,3.98,0,7.97,0,11.97
	C1628,1025.02,1594.55,1018.39,1561.17,1011.42z"/>
<path d="M1705.41,1138.7c20.49-9.46,44.65-10.5,65.95-3.1c9.58,3.25,18.51,8.23,26.5601,14.35
	c3.0599-4.6499,6.0599-9.33,9.1699-13.9399c0.5801-1.39,2.4601-1.87,3.61-0.77c0.7201,1.04,0.77,2.37,1.0601,3.61
	c2.1899,13.74,4.4399,27.48,6.66,41.22c0.61,4.9701,2,9.87,2.09,14.9c-0.37,0.3-1.12,0.91-1.49,1.2101
	c-17.74-0.88-35.48-2.27-53.21-3.42c-2.2401,0.4-4.0701-2.6-2.1201-4.1c3.76-4.04,7.92-7.6901,11.79-11.63
	c-15.6-11.1-36.87-13.8101-54.58-6.37c-1.75,0.5699-4.55,2.5699-5.65,0.0699c-3.66-9.09-6.9301-18.35-10.46-27.49
	C1704.15,1141.73,1703.41,1139.48,1705.41,1138.7z"/>
<path d="M1243.58,1132.33c22.8,0,45.6001,0.02,68.4,0c8.6901,15.8401,17.36,31.7001,25.98,47.5901
	c-12,5.85-23.95,11.7999-35.9299,17.7c-8.42-15.48-16.89-30.92-25.3201-46.39c-5.96,9.64-11.83,19.3301-17.73,29
	c6.25,3.53,12.71,6.6901,18.85,10.4401c-16.7699,2.8999-33.5599,5.6799-50.33,8.5499c-6.5699-15.64-13.3-31.22-19.66-46.9399
	c5.74,3.47,11.7201,6.5399,17.62,9.75C1231.51,1152.14,1237.54,1142.23,1243.58,1132.33z"/>
<path d="M183.51,1135.73c25.45-3.71,52.15,4.3301,71.57,21.11c15.07,12.77,26,30.24,31.26,49.25
	c6.7,23.9701,4.57,50.37-6.26,72.8101c-7.82,16.4399-20.24,30.71-35.66,40.4399c-14.65,9.3301-32.05,14.37-49.43,14.1
	c-20.3-0.09-40.36-7.5299-56.12-20.2599c-13.59-10.9-24.04-25.5701-30.26-41.8201c-7.71-20.0699-8.9-42.54-3.53-63.34
	c5.02-19.5701,15.98-37.65,31.34-50.8201C149.64,1145.76,166.17,1138.1,183.51,1135.73 M181.54,1150.76
	c-27.16,5.02-50.15,25.53-59.94,51.12c-9.02,22.89-7.93,49.58,3.12,71.6c8.84,17.9301,24.25,32.6801,42.91,40.04
	c17.02,6.84,36.52,7.21,53.8,1.0699c15.56-5.48,29.21-15.99,38.75-29.4199c12.19-16.9601,17.79-38.4,15.82-59.16
	c-1.87-21.33-11.85-41.9401-27.81-56.28C230.51,1153.52,205.14,1146.05,181.54,1150.76z"/>
<path d="M610.52,1135.71c19.29-2.7,39.4,1.11,56.37,10.67c15.4,8.5699,28.2,21.6,36.85,36.9301
	c10.23,18.0099,14.7,39.1799,12.88,59.7999c-1.68,20.59-9.74,40.63-22.96,56.53c-11.6,14.01-27.28,24.6799-44.71,29.96
	c-17.78,5.41-37.25,5.13-54.85-0.83c-18.84-6.3301-35.36-18.97-46.78-35.1901c-22.69-31.5599-24.85-76.1599-5.64-109.89
	C555.66,1158.29,581.6,1139.48,610.52,1135.71 M608.61,1150.72c-21.14,3.9-40.1,17.13-51.81,35.0601
	c-11.46,17.26-16.32,38.6899-13.75,59.22c2.29,19.15,11.06,37.5601,24.88,51.0699c12.03,12.02,28.04,20.05,44.93,22.2301
	c16.44,2.1699,33.55-1.17,47.94-9.42c15.52-8.76,27.86-22.8199,34.99-39.11c8.25-18.65,9.67-40.17,4.11-59.78
	c-5.69-20.36-19.11-38.6-37.31-49.49C646.59,1150.77,627,1147.1801,608.61,1150.72z"/>
<path d="M827.54,1135.74c18.28-2.58,37.34,0.59,53.7401,9.1c18.61,9.4501,33.67,25.38,42.72,44.13
	c15.8,32.11,13.26,72.4401-6.73,102.17c-11.07,16.73-27.43,30.04-46.34,36.89c-18.97,6.95-40.31,7.26-59.44,0.76
	c-16.69-5.5601-31.6-16.11-42.69-29.7201c-11.25-13.71-18.69-30.46-21.52-47.95c-3.79-23.11,0.3199-47.53,11.95-67.9
	C773.22,1158.14,798.91,1139.59,827.54,1135.74 M825.58,1150.77c-21.57,4.08-40.81,17.88-52.39,36.4199
	c-11.76,18.42-16.02,41.3401-12.09,62.8c3.38,19.13,13.35,37.11,28.11,49.79c13.46,11.6899,30.95,18.77,48.82,19.12
	c16.0699,0.52,32.1899-4.3301,45.46-13.38c14.67-9.87,25.82-24.67,31.79-41.27c7.74-21.27,6.8799-45.53-2.41-66.17
	c-7.13-15.98-19.24-29.7699-34.47-38.45C862.6,1150.49,843.5,1147.26,825.58,1150.77z"/>
<path d="M1493.97,1136.42c24.99-4.89,51.8101,1.61,72.01,17.0499c2.96-4.5699,5.84-9.1799,8.8301-13.72
	c0.61-1.1899,1.7899-2.21,3.22-1.54c1.75,0.88,1.33,3.1801,1.86,4.78c2.95,18.37,6.5599,36.64,9.23,55.05
	c-0.3,0.36-0.89,1.09-1.1801,1.46c-15.6299-0.4-31.25-1.7-46.8799-2.41c-3.0701-0.35-6.26,0.04-9.2001-0.98
	c-0.83-1.34-0.73-2.5499,0.3-3.63c3.77-3.98,7.7899-7.72,11.61-11.65c-16.3101-11.5499-38.6901-13.0399-56.71-4.7
	c-14.77,6.73-26.4,19.66-32.1201,34.78c-7.1799,18.5499-5.49,40.3199,4.67,57.4399c8.6801,14.9301,23.78,26.1901,40.86,29.3301
	c18.63,3.6899,38.67-2.75,52.02-16.1801c14.8101-14.35,21.6801-36.04,18.62-56.36c10.67-4.25,21.35-8.51,32.04-12.73
	c4.36,20.6,2.45,42.5299-5.75,61.96c-6.6901,15.98-17.5601,30.26-31.4401,40.6801c-14.63,11.08-32.6499,17.7-51.01,18.3999
	c-18.7999,0.87-37.76-4.49-53.47-14.83c-17.62-11.48-31.09-28.96-38.26-48.6801c-12.45-33.5099-6.1899-73.4299,16.8301-100.95
	C1453.64,1152.47,1472.89,1140.46,1493.97,1136.42z"/>
<path d="M397.55,1140.72c19.63-2.33,39.95,2.54,56.49,13.3401c17.28,11.1699,30.4,28.4199,37.05,47.84
	c6.13,17.61,7.02,36.96,2.75,55.1c-4.61,19.63-15.51,37.8199-31.02,50.77c-12.88,10.85-28.94,17.97-45.71,19.84
	c-19.09,2.28-38.88-2.25-55.14-12.49c-16.84-10.4399-29.9-26.63-37.08-45.05c-8.24-20.9399-8.92-44.74-2.01-66.1399
	c5.64-17.65,16.49-33.67,31.09-45.1101C366.46,1148.9301,381.7,1142.51,397.55,1140.72 M397.84,1183.0699
	c-16.27,16.9601-32.35,34.12-48.59,51.12c16.21,17.01,32.32,34.1201,48.55,51.1201c10.6,0.0099,21.21,0,31.82,0.0099
	c-12.27-13-24.64-25.8899-36.85-38.9399c24.21-0.04,48.41,0.02,72.62-0.01c0-8.2-0.01-16.4,0.01-24.6
	c-24.14-0.02-48.28,0.03-72.42-0.02c12.18-12.9301,24.43-25.79,36.65-38.67C419.03,1183.05,408.44,1183.1,397.84,1183.0699z"/>
<path d="M1030.5601,1150.0601c15.1799-8.55,33.6-11.0601,50.5099-6.88c35.55,8.2999,63.6001,43.0099,62.05,79.86
	c0.62,10.24-1.84,20.34-5.1801,29.95c-5.8199,16.13-16.0699,30.9301-30.2599,40.77c-16.8101,11.87-38.7301,15.73-58.7101,11.1899
	c-8.8199-1.97-17.1-5.7699-24.99-10.11c-5.33,11.0901-12.05,21.4401-17.28,32.5901c-17.49-31.41-34.84-62.91-51.75-94.63
	c34.33-1.4301,68.69-0.1901,103.03-0.6101c-4.5599,11.7301-12.51,21.76-17.08,33.4901c9.63,5.5699,21.13,8.2699,32.1799,6.22
	c14.91-2.4401,27.9-13.14,33.8301-26.9401c7.51-17.36,5.5-39.26-7.2101-53.72c-7.5-8.71-18.33-14.5699-29.8099-15.65
	c-8.9501-0.96-18.01,1-26.0701,4.89C1038.3101,1170.85,1034.67,1160.3101,1030.5601,1150.0601z"/>
<path d="M573.79,1234.15c23.14-22.25,46.17-44.62,69.39-66.79c0.03,44.55,0.03,89.11,0.01,133.66
	C620,1278.79,596.87,1256.5,573.79,1234.15z"/>
<path d="M1675,1179.02c1.16-1.48,3.39-0.73,3.91,0.96c8.0599,15.64,15.9099,31.39,23.9299,47.0601
	c0.6,1.4299,1.91,3.13,0.7201,4.6699c-1.25,1.48-3.0701,0.42-4.54,0.11c-4.46-1.3199-8.91-2.6599-13.37-3.9299
	c-0.61,18.29,6.7,36.8099,20.14,49.3199c2.12,2.04,4.5699,3.7101,6.6899,5.78c0.64,1.75-0.88,3.1801-1.6899,4.58
	c-5.49,7.6001-10.73,15.39-16.29,22.9501c-1.26,1.85-3.17,0.22-4.4-0.6801c-15.34-11.83-26.7899-28.45-32.96-46.77
	c-4.51-13.1699-5.98-27.22-5.2001-41.0699c-5.3999-0.26-10.7999-0.4301-16.1699-0.88c-1.79,0.11-2.14-1.76-2.64-2.99
	C1646.92,1204.92,1661.03,1192.03,1675,1179.02z"/>
<path d="M184.35,1190.24c1.57-1.62,3.19-3.5,5.53-3.9c3.92-1.01,8.08,1.6901,9.29,5.4401c1.16,3.1899,0.21,6.89-2.22,9.24
	c-7.74,8.25-15.63,16.37-23.33,24.66c24.79,0.0299,49.58-0.0601,74.36,0.0399c5,0.0701,8.6,5.54,7.45,10.24
	c-0.7,3.88-4.4,7.01-8.4,6.7201c-24.43,0.0299-48.87-0.05-73.3,0.0399c7.59,8.27,15.44,16.3,23.13,24.47
	c2.02,2.01,3.21,4.9,2.7,7.78c-0.51,4.4501-5.12,8.15-9.62,7.04c-2.24-0.38-3.83-2.11-5.34-3.64
	c-11.98-12.71-24.06-25.33-36.03-38.04c-3.44-3.3199-3.33-9.34,0.19-12.5499C160.6,1215.25,172.52,1202.78,184.35,1190.24z"/>
<path d="M829.35,1189.34c1.89-2.22,4.84-3.75,7.81-3.0499c4.35,0.7999,7.33,5.48,6.53,9.7799c-0.4,3.1901-3.02,5.3601-5.07,7.5901
	c-6.96,7.34-13.99,14.6-20.84,22.0299c24.72,0,49.45-0.0399,74.18,0.02c5.86-0.01,9.62,7.2101,6.94,12.2201
	c-1.35,3-4.57,4.96-7.85,4.75c-24.43,0.0199-48.86-0.02-73.28,0.0199c7.68,8.16,15.43,16.27,23.15,24.41
	c1.8,1.8,3.05,4.24,2.88,6.86c-0.02,4.53-4.24,8.72-8.85,8.2001c-2.37-0.17-4.25-1.74-5.8-3.38
	c-12.14-12.8401-24.35-25.63-36.47-38.49c-3.41-3.28-3.3-9.2101,0.14-12.41C804.98,1215.02,817.19,1202.2,829.35,1189.34z"/>
<path d="M1333.9399,1204.14c16.02,1.8199,32.04,3.66,48.05,5.54c-5.4,3.9299-11.0599,7.47-16.53,11.2999
	c5.04,10.48,10.13,20.9301,15.2201,31.39c-11.4,20.8199-22.9401,41.5699-34.3401,62.39c-17.36-0.0701-34.71-0.16-52.0599-0.2
	c1.15-13.9,2.34-27.79,3.5-41.6901c16.9199,0.0699,33.84,0.23,50.77,0.24c-4.87-10.27-9.9401-20.4399-14.8101-30.71
	c-6.12,3.9-12.01,8.14-18.12,12.0599C1321.62,1237.65,1327.83,1220.91,1333.9399,1204.14z"/>
<path d="M1179.47,1253.29c8.2101-16.0701,16.26-32.23,24.4401-48.3201c9.37,6.36,18.72,12.77,28.11,19.12
	c1.6699,1.2101,3.63,2.17,5.01,3.77c-7.75,15.73-15.75,31.35-23.66,47.01c10.9,0.38,21.83,0.27,32.74,0.51
	c-0.5599-7.5-1.22-14.97-1.75-22.46c11.4,13.35,22.42,27.0199,33.73,40.46c-9,14.09-17.95,28.22-27.08,42.23
	c-0.7-6.87-1.13-13.76-1.73-20.64c-11.17-0.1799-22.3401-0.3199-33.5-0.4299C1203.67,1294.13,1191.47,1273.77,1179.47,1253.29z"/>
<path d="M1803.96,1237.04c0.28-1.92-0.01-5.5,2.98-4.9401c9.3501,0.9401,18.67,2.24,28.01,3.34c1.37,0.03,3.27,0.7201,2.9801,2.4801
	c-2.3501,33.6-22.78,65.7-53.13,80.7699c2.4399,5.14,5.11,10.1901,7.3999,15.41c1.1801,1.74-0.7799,4.1901-2.7,3.3201
	c-17.0601-5.9301-34.0699-12.01-51.09-18.04c-1.86-0.3199-2.99-2.3199-1.77-3.92c9.15-15.74,18.4299-31.4099,27.71-47.0699
	c0.63-1.99,3.7001-2.1901,4.24-0.05c1.55,5.52,2.7001,11.15,4.1901,16.7001C1790.09,1275.27,1801.87,1256.74,1803.96,1237.04z"/>
</svg>
